<svg xmlns="http://www.w3.org/2000/svg" xmlns:xlink="http://www.w3.org/1999/xlink" fill="none" version="1.1" width="120" height="16" viewBox="0 0 120 16"><g><g><path d="M16.4166,8.003703125C16.4166,3.603293125,12.7548,0.024046325,8.24702,0.001953125L0.273833,0.001953125C0.122756,0.001953125,0,0.121628125,0,0.268926125L0,15.731153125C0,15.878453125,0.122756,15.998153125,0.273833,15.998153125L8.52084,15.998153125C12.9021,15.836053125,16.4147,12.313953125,16.4147,8.003723125L16.4166,8.003703125ZM3.14244,3.063823125L8.20736,3.063823125C11.0004,3.063823125,13.2742,5.278763125,13.2742,8.003703125C13.2742,10.728653125,11.0023,12.943553125,8.20736,12.943553125L3.14244,12.943553125L3.14244,3.065673125L3.14244,3.063823125Z" fill="#111112" fill-opacity="1"/></g><g><path d="M33.550578906249996,9.375252109375C35.63737890625,8.830262109375,37.18027890625,6.976192109375,37.18027890625,4.772312109375C37.18027890625,2.148632109375,34.99527890625,0.012865749375,32.30607890625,0.003662109375L22.04971190625,0.003662109375C21.89863490625,0.003662109375,21.77587890625,0.123337109375,21.77587890625,0.270635109375L21.77587890625,15.732862109375C21.77587890625,15.880162109375,21.89863490625,15.999862109375,22.04971190625,15.999862109375L24.64448890625,15.999862109375C24.79556890625,15.999862109375,24.91831890625,15.880162109375,24.91831890625,15.732862109375L24.91831890625,9.544652109375L29.964348906250002,9.544652109375L33.88677890625,15.747562109375C33.98687890625,15.904062109375,34.16247890625,15.999862109375,34.35127890625,15.999862109375L37.574978906249996,15.999862109375C37.64667890625,15.999862109375,37.69017890625,15.924362109375,37.65237890625,15.863562109375L33.548678906250004,9.377102109375L33.550578906249996,9.375252109375ZM24.91831890625,3.063702109375L32.28717890625,3.063702109375C33.25217890625,3.063702109375,34.03777890625,3.829632109375,34.03777890625,4.770482109375C34.03777890625,5.711332109375,33.25217890625,6.477252109375,32.28717890625,6.477252109375L24.91831890625,6.477252109375L24.91831890625,3.061872109375L24.91831890625,3.063702109375Z" fill="#111112" fill-opacity="1"/></g><g><path d="M46.56040875,12.9416L46.56040875,9.53915L55.85176875,9.53915C56.00286875,9.53915,56.12556875,9.41947,56.12556875,9.27218L56.12556875,6.7424C56.12556875,6.59511,56.00286875,6.47543,55.85176875,6.47543L46.56040875,6.47543L46.56040875,3.06372L57.13596875,3.06372C57.28696875,3.06372,57.40976875,2.94404,57.40976875,2.79675L57.40976875,0.266973C57.40976875,0.119681,57.28696875,0,57.13596875,0L43.69180175,0C43.54072475,0,43.41796875,0.119675,43.41796875,0.266973L43.41796875,15.7292C43.41796875,15.8765,43.54072475,15.9961,43.69180175,15.9961L57.13406875,15.9961C57.28506875,15.9961,57.40786875,15.8765,57.40786875,15.7292L57.40786875,13.216C57.40976875,13.0687,57.28886875,12.949,57.13776875,12.949L46.56040875,12.9398L46.56040875,12.9416Z" fill="#111112" fill-opacity="1"/></g><g><path d="M109.15072078125,12.9416L109.15072078125,9.53915L118.44210078125,9.53915C118.59310078125,9.53915,118.71590078125,9.41947,118.71590078125,9.27218L118.71590078125,6.7424C118.71590078125,6.59511,118.59310078125,6.47543,118.44210078125,6.47543L109.15072078125,6.47543L109.15072078125,3.06372L119.72620078125,3.06372C119.87730078125,3.06372,120.00010078125,2.94404,120.00010078125,2.79675L120.00010078125,0.266973C120.00010078125,0.119681,119.87730078125,0,119.72620078125,0L106.28212178125,0C106.13103378125,0,106.00830078125,0.119675,106.00830078125,0.266973L106.00830078125,15.7292C106.00830078125,15.8765,106.13105678125,15.9961,106.28212178125,15.9961L119.72440078125,15.9961C119.87550078125,15.9961,119.99820078125,15.8765,119.99820078125,15.7292L119.99820078125,13.216C120.00010078125,13.0687,119.87920078125,12.949,119.72810078124999,12.949L109.15072078125,12.9398L109.15072078125,12.9416Z" fill="#111112" fill-opacity="1"/></g><g><path d="M97.5344796875,0.197117125L91.8369196875,6.954243125L86.1355996875,0.197117125C86.0317196875,0.073756125,85.8768796875,0.001953125,85.7144696875,0.001953125L83.4955006875,0.001953125C83.3444126875,0.001953125,83.2216796875,0.121628125,83.2216796875,0.268926125L83.2216796875,15.731153125C83.2216796875,15.878453125,83.3444356875,15.998053125,83.4955006875,15.998053125L86.0902796875,15.998053125C86.2413696875,15.998053125,86.3640996875,15.878453125,86.3640996875,15.731153125L86.3640996875,5.287973125L91.6273096875,11.525853125C91.7368296875,11.654753125,91.9407996875,11.654753125,92.0484296875,11.525853125L97.3078796875,5.289823125L97.3078796875,15.731153125C97.3078796875,15.878453125,97.4305796875,15.998153125,97.5816796875,15.998153125L100.1764796875,15.998153125C100.32757968749999,15.998153125,100.4502796875,15.878453125,100.4502796875,15.731153125L100.4502796875,0.268932125C100.4502796875,0.121640125,100.3274796875,0.00195874383,100.1764796875,0.00195874383L97.9574796875,0.00195874383C97.7931796875,0.00195874383,97.6383796875,0.073767325,97.5344796875,0.197117125Z" fill="#111112" fill-opacity="1"/></g><g><g><path d="M71.79096292114258,0.0019347667694091797L69.89869292114258,0.0019347667694091797C69.79294292114258,0.0019347667694091797,69.69852292114258,0.06085376676940918,69.65319292114258,0.15291276676940918L66.22371292114258,7.084944766769409C66.81858992114257,7.478964766769409,67.49844292114258,7.756984766769409,68.22550292114258,7.882184766769409C68.57865292114258,7.9429447667694095,68.92990292114258,7.966884766769409,69.27928292114258,7.957664766769409L70.84483292114258,4.790834766769409L71.99303292114257,7.1088847667694095L72.65778292114258,8.451094766769408L74.04203292114258,11.24783476676941L74.81631292114258,12.81103476676941L76.24401292114258,15.694234766769409C76.33461292114258,15.87843476676941,76.52731292114258,15.99623476676941,76.73691292114258,15.99623476676941L79.73771292114257,15.99623476676941C79.80571292114257,15.99623476676941,79.84911292114258,15.928134766769409,79.81891292114258,15.86923476676941L72.03647292114258,0.15291276676940918C71.99115292114257,0.06085376676940918,71.89484292114258,0.0019347667694091797,71.79096292114258,0.0019347667694091797Z" fill="#111112" fill-opacity="1"/></g><g><path d="M63.96487385864258,11.66965937614441L63.40966385864258,12.79093937614441Q63.405883858642575,12.79093937614441,63.405883858642575,12.78909937614441L61.87998002864258,15.873069376144409C61.851648158642575,15.93198937614441,61.89509115864258,16.000109376144408,61.96118345864258,16.000109376144408L64.96009385864258,16.000109376144408C65.16971385864258,16.000109376144408,65.36045385864257,15.882269376144409,65.45299385864257,15.69815937614441L66.32736385864258,13.928789376144408Q66.32169385864258,13.928789376144408,66.31981385864258,13.926939376144409L66.75605385864257,13.06158937614441L66.95434385864257,12.66757437614441L66.96001385864258,12.65837037614441Q66.95812385864258,12.65837037614441,66.95622385864257,12.65837037614441C65.89868385864258,12.457677376144408,64.85245385864258,12.142843376144409,63.96486385864258,11.671502356144408L63.96487385864258,11.66965937614441Z" fill="#111112" fill-opacity="1"/></g></g><g><path d="M72.6578390625,8.452760765625C71.4170690625,9.338369765625,69.9402690625,9.783929765625,68.4030390625,9.732379765625C68.2349590625,9.726849765625,68.0668890625,9.721329765625,67.8988190625,9.704759765624999C66.9829090625,9.609009765625,66.1085390625,9.332839765625,65.3229190625,8.909369765625C64.6487290625,8.546659765625,64.0425290625,8.069792765625,63.5269690625,7.508236165625C63.4891990625,7.467735665625,63.4249990625,7.469567365625,63.3910090625,7.510079065625L61.6026158625,9.631119765625C61.5138625625,9.737909765625,61.5195220625,9.894409765625,61.6196173625,9.991989765625C62.3126880625,10.656659765625001,63.1001990625,11.223739765625,63.9594490625,11.667459765625C63.9613390625,11.667459765625,63.9632290625,11.669299765625,63.9669990625,11.671149765625C64.8545890625,12.140639765625,65.9008090625,12.453649765625,66.9583690625,12.656169765625Q66.9602590625,12.656169765625,66.9621490625,12.656169765625L66.9564790625,12.665379765625C67.1585490625,12.698509765625001,67.3606190625,12.727979765625001,67.5645690625,12.748229765625C67.9290390625,12.786899765625,68.2916290625,12.805309765625001,68.6523390625,12.805309765625001C70.5766990625,12.805309765625001,72.4330390625,12.269529765625,74.0420390625,11.249509765625L72.6578390625,8.452760765625Z" fill="#111112" fill-opacity="1"/></g></g></svg>